<svg width="100" height="100" viewBox="0 0 100 100" fill="none" xmlns="http://www.w3.org/2000/svg">
<path d="M77.0833 95.8337H35.4166C28.5416 95.8337 22.9166 90.2087 22.9166 83.3337V41.667C22.9166 34.792 28.5416 29.167 35.4166 29.167H77.0833C83.9583 29.167 89.5833 34.792 89.5833 41.667V83.3337C89.5833 90.2087 83.9583 95.8337 77.0833 95.8337Z" fill="#3E4095"/>
<path d="M13.5416 42.7087V32.292C13.5416 25.417 19.1666 19.792 26.0416 19.792H46.875" stroke="#FBB92E" stroke-width="6.25" stroke-miterlimit="10" stroke-linecap="round" stroke-linejoin="round"/>
<path d="M80.2083 53.125V73.9583C80.2083 80.8333 74.5833 86.4583 67.7083 86.4583H26.0416C19.1666 86.4583 13.5416 80.8333 13.5416 73.9583V59.375" stroke="#FBB92E" stroke-width="6.25" stroke-miterlimit="10" stroke-linecap="round" stroke-linejoin="round"/>
<path d="M48.9584 51.042L86.4584 13.542" stroke="#FBB92E" stroke-width="6.25" stroke-miterlimit="10" stroke-linecap="round" stroke-linejoin="round"/>
<path d="M57.2916 13.542H86.4583V42.7087" stroke="#FBB92E" stroke-width="6.25" stroke-miterlimit="10" stroke-linecap="round" stroke-linejoin="round"/>
</svg>
